<svg width="60" height="60" viewBox="0 0 60 60" fill="none" xmlns="http://www.w3.org/2000/svg">
<g filter="url(#filter0_ii_2418_646)">
<path d="M29.9999 0C19.3567 0 10.7268 8.6299 10.7268 19.2731C10.7268 28.0863 16.6457 35.5192 24.7238 37.8147C25.6457 38.0767 26.3296 38.8896 26.3296 39.848V42.401C26.3296 43.5056 25.4341 44.401 24.3296 44.401H20.0638C18.9592 44.401 18.0638 45.2964 18.0638 46.401V49.738C18.0638 50.8426 18.9592 51.738 20.0638 51.738H24.3295C25.4341 51.738 26.3295 52.6334 26.3295 53.738V58C26.3295 59.1046 27.2249 60 28.3295 60H31.6665C32.7711 60 33.6665 59.1046 33.6665 58V53.738C33.6665 52.6334 34.5619 51.738 35.6665 51.738H39.9322C41.0368 51.738 41.9322 50.8426 41.9322 49.738V46.401C41.9322 45.2964 41.0368 44.401 39.9322 44.401H35.6666C34.562 44.401 33.6666 43.5056 33.6666 42.401V38.197C42.5556 36.4836 49.273 28.6619 49.273 19.2731C49.273 8.6299 40.6431 0 29.9999 0ZM29.9999 7.6639C36.4115 7.6639 41.6091 12.8615 41.6091 19.2731C41.6091 25.6847 36.4115 30.8823 29.9999 30.8823C23.5883 30.8823 18.3907 25.6847 18.3907 19.2731C18.3907 12.8615 23.5884 7.6639 29.9999 7.6639Z" fill="#FF8787"/>
</g>
<defs>
<filter id="filter0_ii_2418_646" x="-1" y="-3" width="61" height="65" filterUnits="userSpaceOnUse" color-interpolation-filters="sRGB">
<feFlood flood-opacity="0" result="BackgroundImageFix"/>
<feBlend mode="normal" in="SourceGraphic" in2="BackgroundImageFix" result="shape"/>
<feColorMatrix in="SourceAlpha" type="matrix" values="0 0 0 0 0 0 0 0 0 0 0 0 0 0 0 0 0 0 127 0" result="hardAlpha"/>
<feOffset dy="-3"/>
<feGaussianBlur stdDeviation="2"/>
<feComposite in2="hardAlpha" operator="arithmetic" k2="-1" k3="1"/>
<feColorMatrix type="matrix" values="0 0 0 0 0 0 0 0 0 0 0 0 0 0 0 0 0 0 0.25 0"/>
<feBlend mode="normal" in2="shape" result="effect1_innerShadow_2418_646"/>
<feColorMatrix in="SourceAlpha" type="matrix" values="0 0 0 0 0 0 0 0 0 0 0 0 0 0 0 0 0 0 127 0" result="hardAlpha"/>
<feOffset dx="-1" dy="2"/>
<feGaussianBlur stdDeviation="1.5"/>
<feComposite in2="hardAlpha" operator="arithmetic" k2="-1" k3="1"/>
<feColorMatrix type="matrix" values="0 0 0 0 1 0 0 0 0 1 0 0 0 0 1 0 0 0 0.57 0"/>
<feBlend mode="normal" in2="effect1_innerShadow_2418_646" result="effect2_innerShadow_2418_646"/>
</filter>
</defs>
</svg>
